<?xml version="1.0" encoding="UTF-8" standalone="no"?>
<!DOCTYPE svg PUBLIC "-//W3C//DTD SVG 1.1//EN" "http://www.w3.org/Graphics/SVG/1.1/DTD/svg11.dtd">
<svg width="100%" height="100%" viewBox="0 0 3840 600" version="1.1" xmlns="http://www.w3.org/2000/svg" xmlns:xlink="http://www.w3.org/1999/xlink" xml:space="preserve" xmlns:serif="http://www.serif.com/" style="fill-rule:evenodd;clip-rule:evenodd;stroke-linejoin:round;stroke-miterlimit:2;">
    <g transform="matrix(0.668374,0,0,0.645001,1321.42,33.2259)">
        <g transform="matrix(404.332,0,0,404.332,295.354,413.602)">
            <path d="M0.261,-0L0.1,-0L0.1,-0.65L0.261,-0.65C0.313,-0.65 0.353,-0.638 0.38,-0.613C0.407,-0.588 0.42,-0.554 0.42,-0.51L0.42,-0.14C0.42,-0.095 0.407,-0.061 0.38,-0.037C0.353,-0.012 0.314,-0 0.261,-0ZM0.35,-0.14L0.35,-0.51C0.35,-0.531 0.342,-0.55 0.327,-0.566C0.311,-0.582 0.289,-0.59 0.261,-0.59L0.17,-0.59L0.17,-0.06L0.261,-0.06C0.289,-0.06 0.311,-0.068 0.327,-0.084C0.342,-0.099 0.35,-0.118 0.35,-0.14Z" style="fill:rgb(189,189,189);fill-rule:nonzero;"/>
        </g>
        <g transform="matrix(404.332,0,0,404.332,499.542,413.602)">
            <path d="M0.187,-0.65L0.292,-0.65L0.439,-0L0.369,-0L0.335,-0.15L0.144,-0.15L0.11,-0L0.04,-0L0.187,-0.65ZM0.239,-0.572L0.157,-0.21L0.321,-0.21L0.239,-0.572Z" style="fill:rgb(189,189,189);fill-rule:nonzero;"/>
        </g>
        <g transform="matrix(404.332,0,0,404.332,693.217,413.602)">
            <path d="M0.17,-0L0.1,-0L0.1,-0.65L0.17,-0.65L0.387,-0.15L0.387,-0.65L0.457,-0.65L0.457,-0L0.387,-0L0.17,-0.5L0.17,-0Z" style="fill:rgb(189,189,189);fill-rule:nonzero;"/>
        </g>
        <g transform="matrix(404.332,0,0,404.332,918.43,413.602)">
            <path d="M0.24,-0.06L0.24,-0L0.07,-0L0.07,-0.06L0.12,-0.06L0.12,-0.59L0.07,-0.59L0.07,-0.65L0.24,-0.65L0.24,-0.59L0.19,-0.59L0.19,-0.06L0.24,-0.06Z" style="fill:rgb(189,189,189);fill-rule:nonzero;"/>
        </g>
        <g transform="matrix(404.332,0,0,404.332,1043.77,413.602)">
            <path d="M0.395,-0L0.1,-0L0.1,-0.65L0.385,-0.65L0.385,-0.59L0.17,-0.59L0.17,-0.36L0.345,-0.36L0.345,-0.3L0.17,-0.3L0.17,-0.06L0.395,-0.06L0.395,-0Z" style="fill:rgb(189,189,189);fill-rule:nonzero;"/>
        </g>
        <g transform="matrix(404.332,0,0,404.332,1223.7,413.602)">
            <path d="M0.1,-0L0.1,-0.65L0.17,-0.65L0.17,-0.06L0.353,-0.06L0.353,-0L0.1,-0Z" style="fill:rgb(189,189,189);fill-rule:nonzero;"/>
        </g>
    </g>
    <g transform="matrix(0.668374,0,0,0.645001,1430.06,221.177)">
        <g transform="matrix(404.332,0,0,404.332,295.354,413.602)">
            <path d="M0.418,-0.125C0.418,-0.032 0.362,0.015 0.249,0.015C0.136,0.015 0.08,-0.032 0.08,-0.125L0.08,-0.21L0.15,-0.21L0.15,-0.121C0.15,-0.097 0.158,-0.078 0.175,-0.065C0.192,-0.052 0.216,-0.045 0.249,-0.045C0.282,-0.045 0.306,-0.052 0.323,-0.065C0.34,-0.078 0.348,-0.097 0.348,-0.12C0.348,-0.142 0.346,-0.161 0.341,-0.175C0.335,-0.188 0.325,-0.203 0.31,-0.218L0.134,-0.39C0.113,-0.411 0.099,-0.431 0.092,-0.451C0.084,-0.47 0.08,-0.495 0.08,-0.525C0.08,-0.57 0.094,-0.604 0.122,-0.629C0.149,-0.653 0.191,-0.665 0.247,-0.665C0.354,-0.665 0.408,-0.618 0.408,-0.525L0.408,-0.44L0.338,-0.44L0.338,-0.529C0.338,-0.553 0.33,-0.572 0.315,-0.585C0.299,-0.598 0.275,-0.605 0.244,-0.605C0.213,-0.605 0.189,-0.598 0.174,-0.585C0.158,-0.572 0.15,-0.553 0.15,-0.53C0.15,-0.507 0.152,-0.488 0.157,-0.475C0.162,-0.462 0.172,-0.448 0.188,-0.433L0.367,-0.261C0.386,-0.24 0.4,-0.219 0.407,-0.2C0.414,-0.18 0.418,-0.155 0.418,-0.125Z" style="fill:rgb(189,189,189);fill-rule:nonzero;"/>
        </g>
        <g transform="matrix(404.332,0,0,404.332,496.712,413.602)">
            <path d="M0.24,-0.06L0.24,-0L0.07,-0L0.07,-0.06L0.12,-0.06L0.12,-0.59L0.07,-0.59L0.07,-0.65L0.24,-0.65L0.24,-0.59L0.19,-0.59L0.19,-0.06L0.24,-0.06Z" style="fill:rgb(189,189,189);fill-rule:nonzero;"/>
        </g>
        <g transform="matrix(404.332,0,0,404.332,622.055,413.602)">
            <path d="M0.17,-0L0.1,-0L0.1,-0.65L0.205,-0.65L0.319,-0.221L0.434,-0.65L0.539,-0.65L0.539,-0L0.469,-0L0.469,-0.538L0.352,-0.1L0.287,-0.1L0.17,-0.538L0.17,-0Z" style="fill:rgb(189,189,189);fill-rule:nonzero;"/>
        </g>
        <g transform="matrix(404.332,0,0,404.332,880.423,413.602)">
            <path d="M0.418,-0.125C0.418,-0.032 0.362,0.015 0.249,0.015C0.136,0.015 0.08,-0.032 0.08,-0.125L0.08,-0.21L0.15,-0.21L0.15,-0.121C0.15,-0.097 0.158,-0.078 0.175,-0.065C0.192,-0.052 0.216,-0.045 0.249,-0.045C0.282,-0.045 0.306,-0.052 0.323,-0.065C0.34,-0.078 0.348,-0.097 0.348,-0.12C0.348,-0.142 0.346,-0.161 0.341,-0.175C0.335,-0.188 0.325,-0.203 0.31,-0.218L0.134,-0.39C0.113,-0.411 0.099,-0.431 0.092,-0.451C0.084,-0.47 0.08,-0.495 0.08,-0.525C0.08,-0.57 0.094,-0.604 0.122,-0.629C0.149,-0.653 0.191,-0.665 0.247,-0.665C0.354,-0.665 0.408,-0.618 0.408,-0.525L0.408,-0.44L0.338,-0.44L0.338,-0.529C0.338,-0.553 0.33,-0.572 0.315,-0.585C0.299,-0.598 0.275,-0.605 0.244,-0.605C0.213,-0.605 0.189,-0.598 0.174,-0.585C0.158,-0.572 0.15,-0.553 0.15,-0.53C0.15,-0.507 0.152,-0.488 0.157,-0.475C0.162,-0.462 0.172,-0.448 0.188,-0.433L0.367,-0.261C0.386,-0.24 0.4,-0.219 0.407,-0.2C0.414,-0.18 0.418,-0.155 0.418,-0.125Z" style="fill:rgb(189,189,189);fill-rule:nonzero;"/>
        </g>
    </g>
    <g transform="matrix(0.299033,-0.111722,0.118239,0.29473,1675.42,435.397)">
        <path d="M1694.51,561.032L1813.98,887.648L1575.04,887.648L1694.51,561.032Z" style="fill:rgb(54,54,54);"/>
    </g>
    <g transform="matrix(0.347535,0.138731,-0.146206,0.341093,955.835,-56.9652)">
        <path d="M1694.51,561.032L1813.98,887.648L1575.04,887.648L1694.51,561.032Z" style="fill:rgb(54,54,54);"/>
    </g>
    <g transform="matrix(0.343451,-0.148554,0.138715,0.344208,396.579,189.098)">
        <path d="M1694.51,561.032L1813.98,887.648L1575.04,887.648L1694.51,561.032Z" style="fill:rgb(54,54,54);"/>
    </g>
    <g transform="matrix(0.599641,0.136573,-0.125569,0.493655,-138.379,-316.453)">
        <path d="M1694.51,561.032L1813.98,887.648L1575.04,887.648L1694.51,561.032Z" style="fill:rgb(54,54,54);"/>
    </g>
    <g transform="matrix(0.597524,0.383784,-0.414604,0.611149,-492.467,-869.183)">
        <path d="M1694.51,561.032L1813.98,887.648L1575.04,887.648L1694.51,561.032Z" style="fill:rgb(54,54,54);"/>
    </g>
    <g transform="matrix(0.280965,-0.408113,0.336825,0.244593,-292.344,965.765)">
        <path d="M1694.51,561.032L1813.98,887.648L1575.04,887.648L1694.51,561.032Z" style="fill:rgb(54,54,54);"/>
    </g>
    <g transform="matrix(0.269999,-0.0170826,0.0170033,0.25028,1944.47,-64.7712)">
        <path d="M1694.51,561.032L1813.98,887.648L1575.04,887.648L1694.51,561.032Z" style="fill:rgb(54,54,54);"/>
    </g>
    <g transform="matrix(0.4072,0.219239,-0.226468,0.425353,2138.51,-320.384)">
        <path d="M1694.51,561.032L1813.98,887.648L1575.04,887.648L1694.51,561.032Z" style="fill:rgb(54,54,54);"/>
    </g>
    <g transform="matrix(1.00582,-0.469058,0.403313,0.854451,1525.46,516.799)">
        <path d="M1694.51,561.032L1813.98,887.648L1575.04,887.648L1694.51,561.032Z" style="fill:rgb(54,54,54);"/>
    </g>
    <g transform="matrix(0.685953,-0.253243,0.270157,0.541405,1598.66,218.292)">
        <path d="M1694.51,561.032L1813.98,887.648L1575.04,887.648L1694.51,561.032Z" style="fill:rgb(54,54,54);"/>
    </g>
</svg>
